<?xml version="1.0" encoding="UTF-8"?>
<svg xmlns="http://www.w3.org/2000/svg" xmlns:xlink="http://www.w3.org/1999/xlink" width="50px" height="15px" viewBox="0 0 50 15" version="1.1">
<defs>
<linearGradient id="linear0" gradientUnits="userSpaceOnUse" x1="26.648937" y1="20.603781" x2="135.66525" y2="114.39767" gradientTransform="matrix(0.0578746,0,0,0.0591638,-0.967052,-0.552637)">
<stop offset="0" style="stop-color:rgb(35.294118%,62.352941%,83.137255%);stop-opacity:1;"/>
<stop offset="1" style="stop-color:rgb(18.823529%,41.176471%,59.607843%);stop-opacity:1;"/>
</linearGradient>
<linearGradient id="linear1" gradientUnits="userSpaceOnUse" x1="150.96111" y1="192.35176" x2="112.03144" y2="137.27299" gradientTransform="matrix(0.0578746,0,0,0.0591638,-0.967052,-0.552637)">
<stop offset="0" style="stop-color:rgb(100%,83.137255%,23.137255%);stop-opacity:1;"/>
<stop offset="1" style="stop-color:rgb(100%,90.980392%,45.098039%);stop-opacity:1;"/>
</linearGradient>
<filter id="alpha" filterUnits="objectBoundingBox" x="0%" y="0%" width="100%" height="100%">
  <feColorMatrix type="matrix" in="SourceGraphic" values="0 0 0 0 1 0 0 0 0 1 0 0 0 0 1 0 0 0 1 0"/>
</filter>
<mask id="mask0">
  <g filter="url(#alpha)">
<rect x="0" y="0" width="50" height="15" style="fill:rgb(0%,0%,0%);fill-opacity:0.443137;stroke:none;"/>
  </g>
</mask>
<radialGradient id="radial0" gradientUnits="userSpaceOnUse" cx="61.518883" cy="132.28575" fx="61.518883" fy="132.28575" r="29.036913" gradientTransform="matrix(0.00000000179944,-0.0249945,0.108505,0.0000000394953,-8.035949,15.506153)">
<stop offset="0" style="stop-color:rgb(72.156863%,72.156863%,72.156863%);stop-opacity:0.498039;"/>
<stop offset="1" style="stop-color:rgb(49.803922%,49.803922%,49.803922%);stop-opacity:0;"/>
</radialGradient>
<clipPath id="clip1">
  <rect x="0" y="0" width="50" height="15"/>
</clipPath>
<g id="surface5" clip-path="url(#clip1)">
<path style=" stroke:none;fill-rule:nonzero;fill:url(#radial0);" d="M 10.015625 13.96875 C 10.015625 14.371094 8.359375 14.695312 6.316406 14.695312 C 4.277344 14.695312 2.621094 14.371094 2.621094 13.96875 C 2.621094 13.566406 4.277344 13.242188 6.316406 13.242188 C 8.359375 13.242188 10.015625 13.566406 10.015625 13.96875 Z M 10.015625 13.96875 "/>
</g>
</defs>
<g id="surface1">
<path style=" stroke:none;fill-rule:nonzero;fill:rgb(39.215686%,39.215686%,39.215686%);fill-opacity:1;" d="M 18.992188 6.449219 C 18.992188 4.933594 18.566406 4.15625 17.710938 4.113281 C 17.371094 4.097656 17.039062 4.152344 16.71875 4.277344 C 16.460938 4.371094 16.285156 4.464844 16.195312 4.558594 L 16.195312 8.179688 C 16.742188 8.523438 17.226562 8.6875 17.648438 8.660156 C 18.542969 8.601562 18.992188 7.867188 18.992188 6.449219 Z M 20.046875 6.515625 C 20.046875 7.285156 19.867188 7.925781 19.507812 8.433594 C 19.109375 9.007812 18.554688 9.304688 17.847656 9.320312 C 17.3125 9.339844 16.761719 9.167969 16.195312 8.8125 L 16.195312 12.105469 L 15.277344 11.773438 L 15.277344 4.46875 C 15.429688 4.28125 15.621094 4.121094 15.855469 3.984375 C 16.402344 3.664062 17.066406 3.5 17.84375 3.492188 L 17.859375 3.503906 C 18.570312 3.496094 19.121094 3.789062 19.507812 4.390625 C 19.867188 4.941406 20.046875 5.648438 20.046875 6.515625 Z M 20.046875 6.515625 "/>
<path style=" stroke:none;fill-rule:nonzero;fill:rgb(39.215686%,39.215686%,39.215686%);fill-opacity:1;" d="M 25.648438 8.671875 C 25.648438 9.707031 25.546875 10.421875 25.34375 10.820312 C 25.136719 11.21875 24.746094 11.535156 24.167969 11.773438 C 23.699219 11.960938 23.191406 12.0625 22.648438 12.078125 L 22.496094 11.492188 C 23.050781 11.417969 23.441406 11.339844 23.664062 11.265625 C 24.109375 11.113281 24.414062 10.878906 24.582031 10.566406 C 24.714844 10.3125 24.78125 9.824219 24.78125 9.105469 L 24.78125 8.863281 C 24.15625 9.152344 23.5 9.296875 22.8125 9.296875 C 22.359375 9.296875 21.960938 9.152344 21.621094 8.863281 C 21.234375 8.550781 21.042969 8.152344 21.042969 7.671875 L 21.042969 3.808594 L 21.957031 3.492188 L 21.957031 7.378906 C 21.957031 7.792969 22.089844 8.113281 22.355469 8.335938 C 22.621094 8.5625 22.964844 8.667969 23.382812 8.660156 C 23.804688 8.652344 24.253906 8.488281 24.730469 8.164062 L 24.730469 3.628906 L 25.648438 3.628906 Z M 25.648438 8.671875 "/>
<path style=" stroke:none;fill-rule:nonzero;fill:rgb(39.215686%,39.215686%,39.215686%);fill-opacity:1;" d="M 29.226562 9.269531 C 29.117188 9.28125 29.015625 9.285156 28.925781 9.285156 C 28.40625 9.285156 28.003906 9.160156 27.714844 8.90625 C 27.425781 8.65625 27.28125 8.3125 27.28125 7.871094 L 27.28125 4.214844 L 26.652344 4.214844 L 26.652344 3.628906 L 27.28125 3.628906 L 27.28125 2.078125 L 28.195312 1.75 L 28.195312 3.628906 L 29.226562 3.628906 L 29.226562 4.214844 L 28.195312 4.214844 L 28.195312 7.84375 C 28.195312 8.191406 28.289062 8.4375 28.472656 8.582031 C 28.632812 8.703125 28.882812 8.769531 29.226562 8.789062 Z M 29.226562 9.269531 "/>
<path style=" stroke:none;fill-rule:nonzero;fill:rgb(39.215686%,39.215686%,39.215686%);fill-opacity:1;" d="M 34.777344 9.195312 L 33.859375 9.195312 L 33.859375 5.613281 C 33.859375 5.246094 33.773438 4.933594 33.609375 4.671875 C 33.414062 4.375 33.144531 4.226562 32.800781 4.226562 C 32.378906 4.226562 31.855469 4.453125 31.222656 4.902344 L 31.222656 9.195312 L 30.308594 9.195312 L 30.308594 0.632812 L 31.222656 0.339844 L 31.222656 4.238281 C 31.808594 3.808594 32.449219 3.59375 33.144531 3.59375 C 33.628906 3.59375 34.023438 3.757812 34.324219 4.085938 C 34.625 4.417969 34.777344 4.828125 34.777344 5.320312 Z M 34.777344 9.195312 "/>
<path style=" stroke:none;fill-rule:nonzero;fill:rgb(39.215686%,39.215686%,39.215686%);fill-opacity:1;" d="M 39.648438 6.304688 C 39.648438 5.722656 39.539062 5.242188 39.320312 4.859375 C 39.0625 4.394531 38.660156 4.152344 38.117188 4.125 C 37.113281 4.183594 36.609375 4.914062 36.609375 6.3125 C 36.609375 6.953125 36.714844 7.488281 36.925781 7.917969 C 37.195312 8.464844 37.597656 8.734375 38.132812 8.722656 C 39.144531 8.714844 39.648438 7.910156 39.648438 6.304688 Z M 40.652344 6.3125 C 40.652344 7.140625 40.441406 7.832031 40.023438 8.382812 C 39.5625 9 38.925781 9.308594 38.117188 9.308594 C 37.3125 9.308594 36.683594 9 36.234375 8.382812 C 35.824219 7.832031 35.617188 7.140625 35.617188 6.3125 C 35.617188 5.53125 35.839844 4.875 36.285156 4.339844 C 36.75 3.773438 37.367188 3.492188 38.128906 3.492188 C 38.890625 3.492188 39.507812 3.773438 39.988281 4.339844 C 40.429688 4.875 40.652344 5.53125 40.652344 6.3125 Z M 40.652344 6.3125 "/>
<path style=" stroke:none;fill-rule:nonzero;fill:rgb(39.215686%,39.215686%,39.215686%);fill-opacity:1;" d="M 45.90625 9.195312 L 44.988281 9.195312 L 44.988281 5.410156 C 44.988281 4.992188 44.867188 4.671875 44.621094 4.4375 C 44.371094 4.203125 44.042969 4.089844 43.632812 4.101562 C 43.199219 4.109375 42.785156 4.253906 42.390625 4.53125 L 42.390625 9.195312 L 41.476562 9.195312 L 41.476562 4.417969 C 42.003906 4.027344 42.488281 3.773438 42.929688 3.65625 C 43.347656 3.546875 43.71875 3.492188 44.035156 3.492188 C 44.253906 3.492188 44.457031 3.511719 44.652344 3.554688 C 45.011719 3.636719 45.304688 3.792969 45.527344 4.023438 C 45.78125 4.277344 45.90625 4.582031 45.90625 4.9375 Z M 45.90625 9.195312 "/>
<path style=" stroke:none;fill-rule:nonzero;fill:url(#linear0);" d="M 6.226562 0.667969 C 5.753906 0.667969 5.304688 0.710938 4.90625 0.78125 C 3.738281 0.988281 3.527344 1.425781 3.527344 2.230469 L 3.527344 3.296875 L 6.285156 3.296875 L 6.285156 3.652344 L 2.492188 3.652344 C 1.691406 3.652344 0.988281 4.140625 0.769531 5.066406 C 0.515625 6.132812 0.503906 6.796875 0.769531 7.90625 C 0.964844 8.734375 1.433594 9.320312 2.234375 9.320312 L 3.183594 9.320312 L 3.183594 8.046875 C 3.183594 7.125 3.972656 6.3125 4.90625 6.3125 L 7.664062 6.3125 C 8.429688 6.3125 9.042969 5.671875 9.042969 4.890625 L 9.042969 2.230469 C 9.042969 1.476562 8.410156 0.90625 7.664062 0.78125 C 7.1875 0.699219 6.695312 0.664062 6.226562 0.667969 Z M 4.734375 1.523438 C 5.019531 1.523438 5.25 1.761719 5.25 2.054688 C 5.25 2.351562 5.019531 2.585938 4.734375 2.585938 C 4.449219 2.585938 4.214844 2.351562 4.214844 2.054688 C 4.214844 1.761719 4.449219 1.523438 4.734375 1.523438 Z M 4.734375 1.523438 "/>
<path style=" stroke:none;fill-rule:nonzero;fill:url(#linear1);" d="M 9.386719 3.652344 L 9.386719 4.890625 C 9.386719 5.851562 8.582031 6.664062 7.664062 6.664062 L 4.90625 6.664062 C 4.152344 6.664062 3.527344 7.316406 3.527344 8.082031 L 3.527344 10.742188 C 3.527344 11.5 4.179688 11.945312 4.90625 12.160156 C 5.78125 12.421875 6.617188 12.46875 7.664062 12.160156 C 8.355469 11.957031 9.042969 11.546875 9.042969 10.742188 L 9.042969 9.675781 L 6.285156 9.675781 L 6.285156 9.320312 L 10.421875 9.320312 C 11.222656 9.320312 11.519531 8.757812 11.800781 7.90625 C 12.089844 7.03125 12.074219 6.191406 11.800781 5.066406 C 11.601562 4.257812 11.222656 3.652344 10.421875 3.652344 Z M 7.835938 10.386719 C 8.121094 10.386719 8.355469 10.625 8.355469 10.917969 C 8.355469 11.210938 8.121094 11.449219 7.835938 11.449219 C 7.550781 11.449219 7.320312 11.210938 7.320312 10.917969 C 7.320312 10.625 7.550781 10.386719 7.835938 10.386719 Z M 7.835938 10.386719 "/>
<path style=" stroke:none;fill-rule:nonzero;fill:rgb(39.215686%,39.215686%,39.215686%);fill-opacity:1;" d="M 47.691406 2.804688 L 47.851562 2.804688 L 47.851562 1.78125 L 48.230469 1.78125 L 48.230469 1.660156 L 47.308594 1.660156 L 47.308594 1.78125 L 47.691406 1.78125 L 47.691406 2.804688 M 48.375 2.804688 L 48.511719 2.804688 L 48.511719 1.871094 L 48.808594 2.804688 L 48.960938 2.804688 L 49.273438 1.875 L 49.273438 2.804688 L 49.421875 2.804688 L 49.421875 1.660156 L 49.226562 1.660156 L 48.886719 2.640625 L 48.597656 1.660156 L 48.375 1.660156 L 48.375 2.804688 "/>
<use xlink:href="#surface5" mask="url(#mask0)"/>
</g>
</svg>
